<svg width="64" height="64" xmlns="http://www.w3.org/2000/svg">

 <g>
  <title>background</title>
  <rect fill="none" id="canvas_background" height="402" width="582" y="-1" x="-1"/>
 </g>
 <g>
  <title>Layer 1</title>
  <path transform="rotate(-133 29.962596893310547,34.03739929199219) " id="svg_4" fill="#CF9E76" d="m27.854,6.081c-15.042,1.14 -26.763,14.164 -25.798,29.705c0.865,13.944 12.214,25.293 26.157,26.158c15.541,0.965 28.566,-10.757 29.706,-25.798c0.088,-1.158 -0.841,-2.146 -2.003,-2.146l-25.916,0l0,-25.916c0,-1.162 -0.988,-2.091 -2.146,-2.003z"/>
  <path transform="rotate(-136 30,34) " id="svg_5" fill="#DFB28B" d="m30,9c-13.807,0 -25,11.193 -25,25s11.193,25 25,25s25,-11.193 25,-25l-25,0l0,-25z"/>
  <path transform="rotate(-137 29.999999999999996,33.99999999999999) " id="svg_8" fill="#FCD770" d="m30,34l0,-22c-12.15,0 -22,9.85 -22,22s9.85,22 22,22s22,-9.85 22,-22l-22,0z"/>
  <circle id="svg_9" fill="#FC6E51" r="2" cy="49" cx="23"/>
  <circle id="svg_12" fill="#B27946" r="2" cy="31.079297" cx="39.503325"/>
  <circle id="svg_13" fill="#B27946" r="2" cy="42" cx="44"/>
  <circle id="svg_14" fill="#FC6E51" r="2" cy="20.83998" cx="33.05081"/>
  <path transform="rotate(-135 29.962669372558594,34.036865234375) " id="svg_16" d="m55.916,33l-24.916,0l0,-24.916c0,-0.835 -0.352,-1.641 -0.966,-2.21c-0.609,-0.563 -1.423,-0.852 -2.256,-0.79c-15.713,1.19 -27.7,14.991 -26.721,30.764c0.903,14.544 12.55,26.192 27.094,27.094c0.604,0.037 1.204,0.056 1.802,0.056c15.009,-0.001 27.818,-11.665 28.963,-26.776c0.062,-0.824 -0.226,-1.646 -0.79,-2.256c-0.569,-0.614 -1.375,-0.966 -2.21,-0.966zm-27.642,27.946c-13.538,-0.84 -24.38,-11.683 -25.22,-25.221c-0.912,-14.688 10.247,-27.538 24.875,-28.647c0.271,-0.024 0.541,0.071 0.746,0.263c0.21,0.195 0.325,0.459 0.325,0.743l0,2.941c-12.22,0.526 -22,10.628 -22,22.975c0,12.683 10.317,23 23,23c10.758,0 19.971,-7.309 22.403,-17.773l-1.947,-0.453c-2.222,9.553 -10.633,16.226 -20.456,16.226c-11.579,0 -21,-9.421 -21,-21c0,-3.091 0.688,-6.018 1.893,-8.664c0.121,0.101 0.248,0.218 0.4,0.371c0.546,0.546 1.293,1.293 2.707,1.293s2.161,-0.747 2.707,-1.293c0.49,-0.49 0.731,-0.707 1.293,-0.707l0,-2c-1.414,0 -2.161,0.747 -2.707,1.293c-0.49,0.49 -0.731,0.707 -1.293,0.707s-0.803,-0.217 -1.293,-0.707c-0.241,-0.241 -0.527,-0.52 -0.887,-0.758c3.475,-6.013 9.835,-10.136 17.18,-10.485l0,21.95l21.966,0c-0.029,0.626 -0.076,1.25 -0.16,1.865l1.982,0.27c0.096,-0.704 0.147,-1.419 0.178,-2.135l2.95,0c0.284,0 0.548,0.115 0.743,0.325c0.19,0.206 0.283,0.471 0.263,0.746c-1.11,14.628 -13.942,25.798 -28.648,24.875z"/>
  <path id="svg_17" d="m23,46c-1.654,0 -3,1.346 -3,3s1.346,3 3,3s3,-1.346 3,-3s-1.346,-3 -3,-3zm0,4c-0.552,0 -1,-0.448 -1,-1s0.448,-1 1,-1s1,0.448 1,1s-0.448,1 -1,1z"/>
  <path id="svg_19" d="m39.38889,27.735992c-1.654,0 -3,1.346 -3,3s1.346,3 3,3s3,-1.346 3,-3s-1.346,-3 -3,-3zm0,4c-0.552,0 -1,-0.448 -1,-1s0.448,-1 1,-1s1,0.448 1,1s-0.448,1 -1,1z"/>
  <path id="svg_20" d="m44,39c-1.654,0 -3,1.346 -3,3s1.346,3 3,3s3,-1.346 3,-3s-1.346,-3 -3,-3zm0,4c-0.552,0 -1,-0.448 -1,-1s0.448,-1 1,-1s1,0.448 1,1s-0.448,1 -1,1z"/>
  <path id="svg_21" d="m33.050809,18.412154c-1.654,0 -3,1.346 -3,3s1.346,3 3,3s3,-1.346 3,-3s-1.346,-3 -3,-3zm0,4c-0.552,0 -1,-0.448 -1,-1s0.448,-1 1,-1s1,0.448 1,1s-0.448,1 -1,1z"/>
  <path id="svg_22" d="m31.566951,28.028488c-0.562,0 -0.803,-0.217 -1.293,-0.707c-0.546,-0.546 -1.293,-1.293 -2.707,-1.293l0,2c0.562,0 0.803,0.217 1.293,0.707c0.546,0.546 1.293,1.293 2.707,1.293s2.161,-0.747 2.707,-1.293c0.49,-0.49 0.731,-0.707 1.293,-0.707l0,-2c-1.414,0 -2.161,0.747 -2.707,1.293c-0.49,0.49 -0.731,0.707 -1.293,0.707z"/>
  <rect id="svg_26" y="38" x="37" width="2" height="2"/>
  <rect id="svg_27" y="41" x="31" width="2" height="2"/>
  <rect id="svg_28" y="22.6358" x="42.916906" width="2" height="2"/>
  <rect id="svg_29" y="18" x="25" width="2" height="2"/>
  <rect id="svg_30" y="32.781577" x="46.145777" width="2" height="2"/>
  <rect stroke="null" transform="rotate(-36 17.467792510986342,15.946372032165526) " id="svg_31" y="14.946371" x="16.38787" width="2.159843" height="2"/>
 </g>
</svg>