<?xml version="1.0" ?><svg style="enable-background:new 0 0 48 48;" version="1.1" viewBox="0 0 48 48" xml:space="preserve" xmlns="http://www.w3.org/2000/svg" xmlns:xlink="http://www.w3.org/1999/xlink"><g id="Padding__x26__Artboard"/><g id="Icons"><g><path d="M34.62839,30.09204L24.31101,10.6936c-0.06104-0.11426-0.17969-0.18555-0.30908-0.18555    s-0.24805,0.07129-0.30908,0.18555L13.37155,30.09204c-0.03809,0.07227-0.05029,0.15527-0.03369,0.23486l1.40479,6.83008    c0.02344,0.11475,0.10254,0.20996,0.21094,0.25391c0.1084,0.04346,0.23145,0.03174,0.32812-0.03467l7.92676-5.37354    c0.10156-0.05371,0.17139-0.15479,0.18408-0.27148l0.62402-5.74219l0.68506,5.79932    c0.01221,0.10107,0.06738,0.19189,0.15137,0.24854l7.95752,5.39453c0.05859,0.04004,0.12744,0.06055,0.19629,0.06055    c0.04541,0,0.09082-0.00879,0.13428-0.02686c0.10889-0.04492,0.1875-0.14209,0.20947-0.25781l1.3125-6.88525    C34.6782,30.2439,34.66599,30.16284,34.62839,30.09204z" style="fill:#303030;"/></g></g></svg>