<?xml version="1.0" ?><svg data-name="Layer 1" id="Layer_1" viewBox="0 0 128 128" xmlns="http://www.w3.org/2000/svg"><defs><style>.cls-1{fill:#efe1b4;}.cls-18,.cls-2{fill:#fff;}.cls-3{fill:#baa875;}.cls-11,.cls-13,.cls-16,.cls-23,.cls-4,.cls-5,.cls-6,.cls-9{fill:none;}.cls-4{stroke:#baa875;}.cls-11,.cls-12,.cls-13,.cls-15,.cls-16,.cls-23,.cls-4,.cls-9{stroke-linecap:round;stroke-width:4px;}.cls-23,.cls-4,.cls-5,.cls-6{stroke-miterlimit:10;}.cls-5{stroke:#efe1b4;}.cls-5,.cls-6{stroke-width:2px;}.cls-6{stroke:#fff;stroke-linecap:square;}.cls-7{fill:#132a42;}.cls-8{fill:#6c6cad;}.cls-9{stroke:#07182b;}.cls-11,.cls-12,.cls-13,.cls-15,.cls-16,.cls-9{stroke-linejoin:round;}.cls-10{fill:#77ad42;}.cls-11{stroke:#557f2e;}.cls-12{fill:#997f56;stroke:#7c6233;}.cls-13{stroke:#cae8ea;}.cls-14{fill:#cae8ea;}.cls-15{fill:#a8c9cc;}.cls-15,.cls-16{stroke:#a8c9cc;}.cls-17{fill:#a7e8ea;}.cls-17,.cls-18,.cls-20{opacity:0.51;}.cls-19{fill:#56222e;}.cls-21{fill:#902a2b;}.cls-22{fill:#aa2e34;}.cls-23{stroke:#3f1621;}</style></defs><title/><circle class="cls-1" cx="64" cy="66" r="60"/><path class="cls-1" d="M74,74l-7.87-3.14L53,81s11,32.64,11,33.32S69.85,126,69.85,126L88,123l10-12Z"/><path class="cls-1" d="M46,24a9.94,9.94,0,0,0-4.29,1A16,16,0,0,0,10,28c0,.09,0,.18,0,.26A8,8,0,1,0,8,44H46a10,10,0,0,0,0-20Z"/><path class="cls-2" d="M46,19a9.94,9.94,0,0,0-4.29,1A16,16,0,0,0,10,23c0,.09,0,.18,0,.26A8,8,0,1,0,8,39H46a10,10,0,0,0,0-20Z"/><path class="cls-3" d="M127.57,73.3l-.13-.29S106.65,57,69.85,94.75c.77,5.5,3.62,9.95,6.7,13.81l-7.43.76c-3-6.61-6.57-10.28-7.57-17.73a32.06,32.06,0,0,1-.18-5.84C30,61.54,12.9,69.24,5,76.94a60,60,0,0,0,67.86,48.41l.31.66L89,125l0-.74A63,63,0,0,0,127.57,73.3Z"/><line class="cls-4" x1="16.7" x2="16.7" y1="72.7" y2="54.63"/><path class="cls-3" d="M22.61,46.79c0,6.94-2.65,7.39-5.91,7.39s-5.91-.45-5.91-7.39S13.43,25,16.7,25,22.61,39.85,22.61,46.79Z"/><line class="cls-4" x1="30.82" x2="30.82" y1="77.64" y2="62.57"/><path class="cls-3" d="M36.73,54.73c0,6.94-2.65,7.39-5.91,7.39s-5.91-.45-5.91-7.39,2.65-21.79,5.91-21.79S36.73,47.8,36.73,54.73Z"/><path class="cls-1" d="M117,36a9.94,9.94,0,0,0-4.29,1A16,16,0,0,0,81,40c0,.09,0,.18,0,.26A8,8,0,1,0,79,56h38a10,10,0,0,0,0-20Z"/><line class="cls-5" x1="111" x2="121" y1="10" y2="10"/><line class="cls-5" x1="116" x2="116" y1="15" y2="5"/><circle class="cls-6" cx="50" cy="9" r="5"/><path class="cls-6" d="M116.12,91.88A3,3,0,0,0,111,94h0a3,3,0,0,0-5.12-2.12A2.86,2.86,0,0,0,106,96l5,6,5-6A2.86,2.86,0,0,0,116.12,91.88Z"/><path class="cls-7" d="M83.46,92.54a10.11,10.11,0,0,0,10.81-4.63,10.1,10.1,0,0,0,17.46-4.14,10.19,10.19,0,0,0,1.83.6,10.12,10.12,0,1,0,4.34-19.77,10.22,10.22,0,0,0-1.92-.22,10.1,10.1,0,0,0-14.12-11.07,10.09,10.09,0,0,0-11-8.91,10.1,10.1,0,0,0-19.52.33,10.17,10.17,0,0,0-1.83-.6,10.12,10.12,0,0,0-12.05,7.71,15.18,15.18,0,0,0-.36,3,.5.5,0,0,0,.27.45L75.22,85.07l.52-.34A10.09,10.09,0,0,0,83.46,92.54ZM82.1,57.26h0Z"/><path class="cls-8" d="M104.34,70.32a10.17,10.17,0,0,0-8.42,1.95,10.18,10.18,0,0,0-.55-.94l.07,0a10.07,10.07,0,0,0,4.66-8.61A9.1,9.1,0,0,1,111.49,76.3,10.11,10.11,0,0,0,104.34,70.32Z"/><path class="cls-8" d="M88.86,67.95A9.12,9.12,0,0,0,78,74.9c0,.19-.08.39-.11.58a.5.5,0,1,1-1-.16c0-.21.07-.43.12-.64a10.05,10.05,0,0,1,4.43-6.35l.08,0a10,10,0,0,1-.63-1.12l-.06,0a9.1,9.1,0,0,0-1-.68,9.12,9.12,0,1,1,15.84,8A9.12,9.12,0,0,0,88.86,67.95Z"/><path class="cls-8" d="M81.24,46.58a9.13,9.13,0,0,0-8.93,3,9.11,9.11,0,0,1,17.51-5,10.17,10.17,0,0,0-5.6,3.28A9.06,9.06,0,0,0,81.24,46.58Z"/><path class="cls-8" d="M97.68,57.85a9.11,9.11,0,0,0-14.64-1,9.12,9.12,0,1,1,15.75,3.44A9.15,9.15,0,0,0,97.68,57.85Z"/><path class="cls-8" d="M115,64.48A9.13,9.13,0,0,1,113.31,68a10.08,10.08,0,0,0-15.57-4,10.18,10.18,0,0,0-.55-.94l.07,0a10.07,10.07,0,0,0,4.66-8.61,9.12,9.12,0,0,1,13,10.09Z"/><path class="cls-9" d="M57.56,54.83A14.67,14.67,0,0,1,57.91,52a9.63,9.63,0,0,1,13.58-6.6"/><path class="cls-9" d="M111.6,83.18a9.62,9.62,0,1,0,4-18.31"/><path class="cls-9" d="M83,58.46a9.63,9.63,0,0,0-10.52-1"/><path class="cls-9" d="M90.4,44.72a9.61,9.61,0,1,0-8.14,12"/><path class="cls-9" d="M113.28,68.87A9.62,9.62,0,0,0,101.67,54"/><path class="cls-9" d="M94.33,87.2a9.62,9.62,0,0,0,16.85-8.56"/><path class="cls-9" d="M96.62,62.81A9.62,9.62,0,1,0,83.95,60"/><path class="cls-9" d="M76.17,84.41a9.62,9.62,0,1,0,17.34-7.27"/><path class="cls-9" d="M95.22,75.87a9.62,9.62,0,1,0,2.46-11.21"/><path class="cls-9" d="M87,78A9.62,9.62,0,1,0,79.33,66.5q-.07.31-.11.61"/><path class="cls-7" d="M60.49,107.73a10.11,10.11,0,0,0,11.6,1.92A10.1,10.1,0,0,0,89,115.59a10.19,10.19,0,0,0,1.22,1.5,10.12,10.12,0,1,0,14.31-14.31,10.22,10.22,0,0,0-1.5-1.22,10.1,10.1,0,0,0-5.93-16.94,10.09,10.09,0,0,0-4.5-13.46A10.1,10.1,0,0,0,76,60.92a10.17,10.17,0,0,0-1.22-1.5,10.12,10.12,0,0,0-14.31,0,15.18,15.18,0,0,0-1.91,2.32.5.5,0,0,0,0,.53L57.57,97h.62A10.09,10.09,0,0,0,60.49,107.73ZM78.36,77.29h0v0Z"/><path class="cls-8" d="M90,100.28a10.17,10.17,0,0,0-8.14-2.9,10.18,10.18,0,0,0,0-1.08H82a10.07,10.07,0,0,0,8.57-4.74,9.1,9.1,0,0,1,2.25,17.61A10.11,10.11,0,0,0,90,100.28Z"/><path class="cls-8" d="M78.29,89.93a9.12,9.12,0,0,0-12.9,0l-.41.43a.5.5,0,0,1-.75-.66l.45-.48a10.05,10.05,0,0,1,7.16-3h.1A10,10,0,0,1,72,85s0,0,0-.05a9.1,9.1,0,0,0-.47-1.1,9.12,9.12,0,1,1,9,15.27A9.12,9.12,0,0,0,78.29,89.93Z"/><path class="cls-8" d="M83.39,67.83a9.13,9.13,0,0,0-9.16-2.26A9.11,9.11,0,0,1,91.7,70.75a10.17,10.17,0,0,0-6.48-.26A9.06,9.06,0,0,0,83.39,67.83Z"/><path class="cls-8" d="M91.16,86.18a9.11,9.11,0,0,0-11.81-8.71A9.12,9.12,0,1,1,90.76,88.86,9.15,9.15,0,0,0,91.16,86.18Z"/><path class="cls-8" d="M102.14,101.08a9.13,9.13,0,0,1-3.29,2.09A10.08,10.08,0,0,0,87.9,91.38a10.18,10.18,0,0,0,0-1.08H88a10.07,10.07,0,0,0,8.57-4.74,9.12,9.12,0,0,1,5.54,15.52Z"/><path class="cls-9" d="M59,62a14.67,14.67,0,0,1,1.85-2.24,9.63,9.63,0,0,1,15,1.76"/><path class="cls-9" d="M89.23,115a9.62,9.62,0,1,0,13.22-13.27"/><path class="cls-9" d="M78.44,78.77a9.63,9.63,0,0,0-8.34-6.48"/><path class="cls-9" d="M92.11,71.19a9.61,9.61,0,1,0-13.34,5.75"/><path class="cls-9" d="M98.35,103.87a9.62,9.62,0,0,0-1.74-18.82"/><path class="cls-9" d="M72.51,109.1A9.62,9.62,0,0,0,91.31,111"/><path class="cls-9" d="M87.6,89.78a9.62,9.62,0,1,0-9.16-9.19"/><path class="cls-9" d="M58.73,97a9.62,9.62,0,1,0,18.52,3.23"/><path class="cls-9" d="M79.38,100a9.62,9.62,0,1,0,8.11-8.12"/><path class="cls-9" d="M71.32,97.44A9.62,9.62,0,1,0,71,83.58l-.43.45"/><path class="cls-10" d="M39.64,66.83c.66,0,1.43,2,2.71,1.78,4.62-.62,5.84-3,8.49-3.35,5.3-.8,11.64,6.88,12.14,12.83.08.91.19,2.55-.79,3.37s-2.52,0-5.95.34c-1.43.13-3.23.3-3.43,1.06-.16.59.74,1.16,3,3.1s3.58,3,4.07,4c.82,1.61.61,3.42,0,5.72-1.34,4.83-5.47,15.19-9.46,14.58-2.19-.34-3.49-3.84-4.17-5.68C44.93,101,45.79,99,43.94,95c-.42-.92-1.65-3.6-2.71-3.43-.88.13-1.33,2.13-1.45,3.37-.38,4,2.18,5,2.13,8.85,0,2.35-1,5.13-3,6.15a4.47,4.47,0,0,1-2.44.4c-2.3-.16-6.2.88-13.24,6.07-2.54-8.36-5-11.53-7-12.77a4.47,4.47,0,0,1-1.72-1.78c-1-2-.14-4.84,1.25-6.74,2.25-3.1,4.93-2.43,7-5.82.65-1.07,1.48-2.94.85-3.57s-3.34.64-4.23,1.13C15.45,89,15,91,11.76,93.13,10.12,94.2,7,96.23,5,95.19,1.46,93.3,4.34,82.52,6.16,77.85c.86-2.22,1.77-3.8,3.4-4.6,1-.48,2.54-.58,5.65-.77s4.07-.1,4.29-.67c.3-.73-1.05-1.95-2.12-2.9-2.56-2.3-4.24-2.47-4.56-3.83s.78-2.49,1.38-3.17c4-4.47,13.63-6.84,17.41-3,1.88,1.9,1.46,4.5,4.8,7.76C37.33,67.54,39.09,66.47,39.64,66.83Z"/><polygon class="cls-10" points="19.97 80.7 30.73 86.37 23.16 96.5 15.24 91.77 10.8 82.92 19.97 80.7"/><path class="cls-11" d="M39.64,66.83c.66,0,1.43,2,2.71,1.78,4.62-.62,5.84-3,8.49-3.35,5.3-.8,11.64,6.88,12.14,12.83.08.91.19,2.55-.79,3.37s-2.52,0-5.95.34c-1.43.13-3.23.3-3.43,1.06-.16.59.74,1.16,3,3.1s3.58,3,4.07,4c.82,1.61.61,3.42,0,5.72-1.34,4.83-5.47,15.19-9.46,14.58-2.19-.34-3.49-3.84-4.17-5.68C44.93,101,45.79,99,43.94,95c-.42-.92-1.65-3.6-2.71-3.43-.88.13-1.33,2.13-1.45,3.37-.38,4,2.18,5,2.13,8.85,0,2.35-1,5.13-3,6.15a4.47,4.47,0,0,1-2.44.4c-2.3-.16-6.2.88-13.24,6.07-2.54-8.36-5-11.53-7-12.77a4.47,4.47,0,0,1-1.72-1.78c-1-2-.14-4.84,1.25-6.74,2.25-3.1,4.93-2.43,7-5.82.65-1.07,1.48-2.94.85-3.57s-3.34.64-4.23,1.13C15.45,89,15,91,11.76,93.13,10.12,94.2,7,96.23,5,95.19,1.46,93.3,4.34,82.52,6.16,77.85c.86-2.22,1.77-3.8,3.4-4.6,1-.48,2.54-.58,5.65-.77s4.07-.1,4.29-.67c.3-.73-1.05-1.95-2.12-2.9-2.56-2.3-4.24-2.47-4.56-3.83s.78-2.49,1.38-3.17c4-4.47,13.63-6.84,17.41-3,1.88,1.9,1.46,4.5,4.8,7.76C37.33,67.54,39.09,66.47,39.64,66.83Z"/><path class="cls-7" d="M65.38,75H66L65,40.26a.5.5,0,0,0,0-.53,15.18,15.18,0,0,0-1.91-2.32,10.12,10.12,0,0,0-14.31,0,10.17,10.17,0,0,0-1.22,1.5A10.1,10.1,0,0,0,30.94,49.16a10.1,10.1,0,0,0-4.5,13.46,10.1,10.1,0,0,0-5.93,16.94A10.22,10.22,0,0,0,19,80.78,10.12,10.12,0,0,0,33.33,95.09a10.19,10.19,0,0,0,1.22-1.5,10.1,10.1,0,0,0,16.94-5.93A10.1,10.1,0,0,0,65.38,75ZM45.22,55.28v0h0Z"/><path class="cls-8" d="M33.52,78.28a10.17,10.17,0,0,1,8.14-2.9,10.18,10.18,0,0,1,0-1.08h-.09A10.07,10.07,0,0,1,33,69.56a9.1,9.1,0,0,0-2.25,17.61A10.11,10.11,0,0,1,33.52,78.28Z"/><path class="cls-8" d="M45.28,67.93a9.12,9.12,0,0,1,12.9,0l.41.43a.5.5,0,0,0,.75-.66l-.45-.48a10.05,10.05,0,0,0-7.16-3h-.1A10,10,0,0,0,51.56,63s0,0,0-.05a9.1,9.1,0,0,1,.47-1.1A9.12,9.12,0,1,0,43,77.1,9.12,9.12,0,0,1,45.28,67.93Z"/><path class="cls-8" d="M40.18,45.83a9.13,9.13,0,0,1,9.16-2.26,9.11,9.11,0,0,0-17.47,5.18,10.17,10.17,0,0,1,6.48-.26A9.06,9.06,0,0,1,40.18,45.83Z"/><path class="cls-8" d="M32.41,64.18a9.11,9.11,0,0,1,11.81-8.71A9.12,9.12,0,1,0,32.81,66.86,9.15,9.15,0,0,1,32.41,64.18Z"/><path class="cls-8" d="M18.75,72.63A9.11,9.11,0,0,1,27,63.56a10.07,10.07,0,0,0,8.57,4.74h.09a10.18,10.18,0,0,0,0,1.08A10.08,10.08,0,0,0,24.72,81.17a9.06,9.06,0,0,1-6-8.54Z"/><path class="cls-9" d="M64.58,40a14.67,14.67,0,0,0-1.85-2.24,9.63,9.63,0,0,0-15,1.76"/><path class="cls-9" d="M34.34,93A9.62,9.62,0,1,1,21.12,79.75"/><path class="cls-9" d="M45.12,56.77a9.63,9.63,0,0,1,8.34-6.48"/><path class="cls-9" d="M31.46,49.19A9.61,9.61,0,1,1,44.8,54.94"/><path class="cls-9" d="M25.21,81.87A9.62,9.62,0,0,1,27,63.05"/><path class="cls-9" d="M51.05,87.1A9.62,9.62,0,0,1,32.25,89"/><path class="cls-9" d="M36,67.78a9.62,9.62,0,1,1,9.16-9.19"/><path class="cls-9" d="M64.84,75a9.62,9.62,0,1,1-18.52,3.23"/><path class="cls-9" d="M44.19,78a9.62,9.62,0,1,1-8.11-8.12"/><path class="cls-9" d="M52.25,75.44a9.62,9.62,0,1,1,.28-13.87L53,62"/><path class="cls-12" d="M73,44.74l6.07-5.35c.86-.86.24-2.9-.63-3.76h0c-.86-.86-2.9-1.49-3.76-.63l-5.36,6.08"/><path class="cls-10" d="M62.82,52.47c.33-.57,2.38-.4,2.81-1.63,1.52-4.41,0-6.54.81-9.09,1.66-5.1,11.37-7.32,16.92-5.1.84.34,2.37,1,2.66,2.22s-1.11,2.27-2.36,5.47c-.52,1.33-1.18,3-.59,3.55s1.37-.14,4.14-1.33,4.31-1.84,5.39-1.85c1.81,0,3.33,1,5.1,2.59,3.72,3.36,11.13,11.7,8.79,15-1.28,1.8-5,1.4-6.94,1.18-3.84-.42-5.16-2.06-9.6-2.22-1,0-4-.14-4.28.89C85.38,63,87,64.29,88,65c3.36,2.11,5.46.31,8.86,2.07C99,68.1,101,70.25,101,72.49a4.47,4.47,0,0,1-.74,2.36c-1.18,2-2,5.94-.52,14.55-8.61-1.48-12.57-.66-14.55.52a4.47,4.47,0,0,1-2.36.74c-2.24,0-4.39-2-5.47-4.14-1.76-3.41,0-5.5-2.07-8.86-.66-1.06-2-2.64-2.81-2.36-1,.33-.92,3.27-.89,4.28.16,4.44,1.8,5.77,2.22,9.6.21,2,.62,5.66-1.18,6.94-3.29,2.34-11.64-5.07-15-8.79-1.6-1.77-2.6-3.29-2.59-5.1,0-1.08.62-2.53,1.85-5.39s1.73-3.68,1.33-4.14-2.21.07-3.55.59c-3.2,1.25-4.11,2.68-5.47,2.36S47.35,73.85,47,73c-2.22-5.54,0-15.25,5.1-16.92,2.54-.83,4.68.71,9.09-.81C62.42,54.86,62.25,52.8,62.82,52.47Z"/><polygon class="cls-10" points="66.39 76.27 76.29 69.2 81.95 80.51 74.17 85.46 64.27 85.46 66.39 76.27"/><path class="cls-11" d="M62.82,52.47c.33-.57,2.38-.4,2.81-1.63,1.52-4.41,0-6.54.81-9.09,1.66-5.1,11.37-7.32,16.92-5.1.84.34,2.37,1,2.66,2.22s-1.11,2.27-2.36,5.47c-.52,1.33-1.18,3-.59,3.55s1.37-.14,4.14-1.33,4.31-1.84,5.39-1.85c1.81,0,3.33,1,5.1,2.59,3.72,3.36,11.13,11.7,8.79,15-1.28,1.8-5,1.4-6.94,1.18-3.84-.42-5.16-2.06-9.6-2.22-1,0-4-.14-4.28.89C85.38,63,87,64.29,88,65c3.36,2.11,5.46.31,8.86,2.07C99,68.1,101,70.25,101,72.49a4.47,4.47,0,0,1-.74,2.36c-1.18,2-2,5.94-.52,14.55-8.61-1.48-12.57-.66-14.55.52a4.47,4.47,0,0,1-2.36.74c-2.24,0-4.39-2-5.47-4.14-1.76-3.41,0-5.5-2.07-8.86-.66-1.06-2-2.64-2.81-2.36-1,.33-.92,3.27-.89,4.28.16,4.44,1.8,5.77,2.22,9.6.21,2,.62,5.66-1.18,6.94-3.29,2.34-11.64-5.07-15-8.79-1.6-1.77-2.6-3.29-2.59-5.1,0-1.08.62-2.53,1.85-5.39s1.73-3.68,1.33-4.14-2.21.07-3.55.59c-3.2,1.25-4.11,2.68-5.47,2.36S47.35,73.85,47,73c-2.22-5.54,0-15.25,5.1-16.92,2.54-.83,4.68.71,9.09-.81C62.42,54.86,62.25,52.8,62.82,52.47Z"/><polygon class="cls-1" points="48 30 48 45 68.49 57.61 100.34 49.02 100 36 66 24 48 30"/><path class="cls-2" d="M117,31a9.94,9.94,0,0,0-4.29,1A16,16,0,0,0,81,35c0,.09,0,.18,0,.26A8,8,0,1,0,79,51h38a10,10,0,0,0,0-20Z"/><path class="cls-13" d="M79,69a26.48,26.48,0,0,0-5,16"/><path class="cls-13" d="M69,69a26.48,26.48,0,0,1,5,16"/><line class="cls-13" x1="74" x2="74" y1="83" y2="121"/><path class="cls-14" d="M79.51,68A29.58,29.58,0,0,0,74,85a29.58,29.58,0,0,0-5.51-17L74,71Z"/><path class="cls-15" d="M81,126s-7-3-7-9c0,6-7,9-7,9"/><line class="cls-16" x1="50" x2="98" y1="126" y2="126"/><line class="cls-15" x1="71" x2="77" y1="119" y2="119"/><path class="cls-17" d="M55,2V6.32a12,12,0,0,1-1,4.83c-2.29,5.2-7.56,19.28-6,35.85,2,21,26,22,26,22s24-1,26-22c1.58-16.57-3.69-30.65-6-35.85a12,12,0,0,1-1-4.83V2"/><path class="cls-18" d="M82.1,9.59A3,3,0,0,1,85,6h2s4,0,4-4H55V6.32a12,12,0,0,1-1,4.83c-2.29,5.2-7.56,19.28-6,35.85a22.44,22.44,0,0,0,3.66,10.61c5.09-1.84,5.13-5.64,4.88-7.31-.06-.26-.12-.51-.17-.78v0h0c-.15-.8-.28-1.62-.36-2.48-1.58-16.57,3.69-30.65,6-35.85a12.73,12.73,0,0,0,.68-2.67,3,3,0,0,1,3-2.48h2.47a3,3,0,0,1,3,2.75,23.44,23.44,0,0,0,.29,2.4A153.9,153.9,0,0,1,74.16,47c0,.9-.1,1.76-.18,2.59.2,2.1,1,4.82,4,5.41,3.22.64,9.3-2,9.75-8a85,85,0,0,0-5.24-35.85A9.78,9.78,0,0,1,82.1,9.59Z"/><circle class="cls-19" cx="74" cy="20" r="4"/><path class="cls-19" d="M97,22.61a5.89,5.89,0,0,0-5.89,9.32h0s4.13,7.67-5.31,11.21a8,8,0,0,1-9.44-2.95c-2.36-3.54,1.18-5.9,1.18-9.44a3.54,3.54,0,0,0-7.08,0c0,3.54,3.54,5.9,1.18,9.44a8,8,0,0,1-9.44,2.95c-9.44-3.54-5.31-11.21-5.31-11.21h0A5.9,5.9,0,0,0,51,22.61L48,33.7C48,47,50,56,58,63c5.43,4.75,16,6,16,6s10.19-1.72,16-6c10.59-7.8,9.74-17.09,10-29.3Z"/><g class="cls-20"><path class="cls-2" d="M56.53,50.3c-.06-.26-.12-.51-.17-.78v0h0c-.15-.8-.28-1.62-.36-2.48a70.46,70.46,0,0,1,1.38-21.4,5.9,5.9,0,0,0-6.38-3L48.15,33.14c-.05.46-.1.93-.14,1.4.06,9.41,1.2,16.64,4.89,22.52A6.21,6.21,0,0,0,56.53,50.3Z"/><path class="cls-2" d="M74,49.59c.2,2.1,1,4.82,4,5.41,3.22.64,9.3-2,9.75-8,.12-1.66.18-3.28.2-4.88a14.41,14.41,0,0,1-2.15,1,8,8,0,0,1-9.44-2.95c-2.36-3.54,1.18-5.9,1.18-9.44A3.54,3.54,0,0,0,74,27.21c-.11,0-.21,0-.32,0A150.26,150.26,0,0,1,74.16,47C74.12,47.9,74.05,48.76,74,49.59Z"/></g><path class="cls-21" d="M100,41.6C98,58.21,74,59,74,59s-24-.79-26-17.4c-.13-1.07-.2-2.11-.24-3.15A65.73,65.73,0,0,0,48,47c2,21,26,22,26,22s24-1,26-22a65.73,65.73,0,0,0,.24-8.55C100.2,39.49,100.13,40.53,100,41.6Z"/><path class="cls-22" d="M48.34,49.36c.07.35.14.7.21,1s.12.49.18.73.15.53.23.79.17.54.26.8.14.37.2.55a21.11,21.11,0,0,0,2.23,4.34h0a7.1,7.1,0,0,0,4.47-3.79C52.05,51.23,48.7,47.37,48,41.6c-.13-1.07-.2-2.11-.24-3.15,0,0,0,.06,0,.08,0,.66,0,1.33,0,2,0,.4,0,.8,0,1.2s0,1.06,0,1.6c0,.33,0,.65,0,1,0,.89.1,1.78.19,2.68.06.6.14,1.19.23,1.76C48.26,49,48.31,49.16,48.34,49.36Z"/><path class="cls-16" d="M55,2V6.32a12,12,0,0,1-1,4.83A74.85,74.85,0,0,0,50.24,22"/><path class="cls-16" d="M97.76,22A74.85,74.85,0,0,0,94,11.15a12,12,0,0,1-1-4.83V2"/><path class="cls-23" d="M50.24,22A71.82,71.82,0,0,0,48,47c2,21,26,22,26,22s24-1,26-22a71.82,71.82,0,0,0-2.24-25"/><circle class="cls-18" cx="74" cy="11" r="2"/><path class="cls-18" d="M78,20a4,4,0,0,0-5.67-3.63c.34,2.14.7,4.69,1,7.56A3.93,3.93,0,0,0,78,20Z"/></svg>